<svg xmlns="http://www.w3.org/2000/svg" xmlns:xlink="http://www.w3.org/1999/xlink" xmlns:serif="http://www.serif.com/" viewBox="0 0 100 126.25" version="1.1" xml:space="preserve" style="" x="0px" y="0px" fill-rule="evenodd" clip-rule="evenodd" stroke-linejoin="round" stroke-miterlimit="2"><path d="M79.035,27.349c2.164,0 3.919,1.755 3.919,3.92l0,7.895c3.385,0.937 6.504,2.736 9.031,5.263c3.845,3.846 6.006,9.062 6.006,14.5l0,0.043c0,5.439 -2.161,10.654 -6.006,14.5c-3.846,3.846 -9.062,6.006 -14.5,6.006l-6.853,0l0,7.755l10.5,0c3.363,0 6.09,2.727 6.09,6.091l0,0.087c0,3.364 -2.727,6.091 -6.09,6.091l-62.264,0c-3.363,0 -6.09,-2.727 -6.09,-6.091l0,-0.087c0,-3.364 2.727,-6.091 6.09,-6.091l10.5,0l0,-7.755l-1.702,0c-0.138,0.003 -3.38,0.057 -9.017,-2.057c-9.717,-3.644 -16.64,-13.023 -16.64,-24.006c0,-13.458 10.394,-24.506 23.584,-25.551l0,-3.697l3.92,0l0,3.684c7.78,0.563 14.601,4.603 18.913,10.572l14.644,0l0,-7.152c0,-2.165 1.755,-3.92 3.92,-3.92l12.045,0Zm-45.747,52.127l-0,7.755l33.424,0l-0,-7.755l-33.424,0Zm1.949,-17.182c-2.029,1.78 -4.687,2.86 -7.596,2.86c-6.362,0 -11.526,-5.164 -11.526,-11.525c-0,-6.361 5.164,-11.526 11.526,-11.526c6.361,0 11.525,5.165 11.525,11.526c-0,2.039 -0.531,3.956 -1.462,5.619l3.932,3.276l10.362,0c1.082,0 1.96,0.879 1.96,1.96c-0,1.082 -0.878,1.96 -1.96,1.96l-11.071,0c-0.459,0 -0.903,-0.16 -1.255,-0.454l-4.435,-3.696Zm-0.625,-5.623c0.408,-0.932 0.634,-1.961 0.634,-3.042c-0,-4.198 -3.408,-7.606 -7.605,-7.606c-4.198,0 -7.606,3.408 -7.606,7.606c-0,4.198 3.408,7.606 7.606,7.606c1.696,0 3.263,-0.557 4.529,-1.497l-5.784,-4.82c-0.831,-0.692 -0.944,-1.929 -0.251,-2.76c0.692,-0.831 1.929,-0.943 2.76,-0.251l5.717,4.764Zm36.44,-32.822l0,-7.358l-10.196,0c-1.082,0 -1.96,-0.878 -1.96,-1.96c-0,-1.082 0.878,-1.96 1.96,-1.96l21.331,0l10.498,-10.498c0.765,-0.765 2.007,-0.765 2.772,0c0.764,0.765 0.764,2.007 -0,2.772l-11.072,11.072c-0.368,0.367 -0.866,0.574 -1.386,0.574l-8.027,0l-0,7.358l-3.92,0Zm-34.511,-3.184l-17.976,0c-3.364,0 -6.09,-2.727 -6.09,-6.091l0,-0.087c0,-3.364 2.726,-6.09 6.09,-6.09l17.976,0c3.364,0 6.091,2.726 6.091,6.09l0,0.087c0,3.364 -2.727,6.091 -6.091,6.091Z"/><text x="0" y="116" fill="#000000" font-size="5px" font-weight="bold" font-family="'Helvetica Neue', Helvetica, Arial-Unicode, Arial, Sans-serif">Created by alimasykurm</text><text x="0" y="121" fill="#000000" font-size="5px" font-weight="bold" font-family="'Helvetica Neue', Helvetica, Arial-Unicode, Arial, Sans-serif">from the Noun Project</text></svg>